<svg id="Capa_1" enable-background="new 0 0 508.5 508.5" height="512" viewBox="0 0 508.5 508.5" width="512" xmlns="http://www.w3.org/2000/svg"><g id="XMLID_625_"><path id="XMLID_642_" d="m366.301 198.292h-224.102v-88.047c0-60.789 49.456-110.245 110.245-110.245h3.611c60.789 0 110.245 49.456 110.245 110.245v88.047zm-194.102-30h164.102v-58.047c0-44.248-35.998-80.245-80.245-80.245h-3.611c-44.247 0-80.245 35.998-80.245 80.245v58.047z" fill="#2453b3"/><path id="XMLID_945_" d="m256.056 0v30c44.247 0 80.245 35.998 80.245 80.245v58.047h-80.245v30h110.245v-88.047c0-60.789-49.456-110.245-110.245-110.245z" fill="#192b80"/><path id="XMLID_646_" d="m94.301 165.292v309.581c0 18.542 15.085 33.626 33.627 33.626h252.645c18.542 0 33.627-15.085 33.627-33.626v-309.581z" fill="#39f"/><path id="XMLID_943_" d="m256.056 165.292v343.208h124.517c18.542 0 33.627-15.085 33.627-33.626v-309.582z" fill="#37f"/><path id="XMLID_636_" d="m179.314 390.777-42.569-42.569 42.569-42.569 21.213 21.213-21.356 21.356 21.356 21.356z" fill="#e6eeff"/><path id="XMLID_635_" d="m329.186 390.777-21.213-21.213 21.356-21.356-21.356-21.356 21.213-21.213 42.569 42.569z" fill="#d2d6f8"/><path id="XMLID_634_" d="m192.255 333.2h123.991v30h-123.991z" fill="#e6eeff" transform="matrix(.439 -.899 .899 .439 -170.196 423.909)"/><path id="XMLID_987_" d="m256.056 378.692 38.874-79.621-26.959-13.162-11.915 24.404z" fill="#d2d6f8"/></g></svg>